<svg fill="none" xmlns="http://www.w3.org/2000/svg" viewBox="0 0 128 128"><circle cx="64" cy="64" r="40" fill="#DC39EC"/><path d="M93 92c0 2.683-.236 5.017-.707 7 .471 1.867.707 4.2.707 7 0 2.683-.236 5.017-.707 7H78.146c-.471-1.983-.707-4.317-.707-7 0-2.8.236-5.133.707-7-.471-1.983-.707-4.317-.707-7 0-2.8.236-5.133.707-7H49.854c.471 1.867.707 4.2.707 7 0 2.683-.236 5.017-.707 7 .471 1.867.707 4.2.707 7 0 2.683-.236 5.017-.707 7H35.707c-.471-1.983-.707-4.317-.707-7 0-2.8.236-5.133.707-7-.471-1.983-.707-4.317-.707-7 0-2.8.236-5.133.707-7h5.305c-.471-1.983-.707-4.317-.707-7 0-2.8.236-5.133.707-7-.471-1.983-.707-4.317-.707-7 0-2.8.236-5.133.707-7h3.537c-.472-1.983-.707-4.317-.707-7 0-2.8.235-5.133.707-7h5.305c-.472-1.983-.708-4.317-.708-7 0-2.8.236-5.133.708-7h3.536c-.471-1.983-.707-4.317-.707-7 0-2.8.236-5.133.707-7h21.22c.471 1.867.707 4.2.707 7 0 2.683-.236 5.017-.707 7h3.536c.472 1.867.708 4.2.708 7 0 2.683-.236 5.017-.708 7h5.305c.472 1.867.708 4.2.708 7 0 2.683-.236 5.017-.708 7h3.537c.471 1.867.707 4.2.707 7 0 2.683-.236 5.017-.707 7 .471 1.867.707 4.2.707 7 0 2.683-.236 5.017-.707 7h5.305c.471 1.867.707 4.2.707 7ZM72.841 71c-.471-1.983-.707-4.317-.707-7 0-2.8.236-5.133.707-7h-3.536c-.472-1.983-.707-4.317-.707-7 0-2.8.235-5.133.707-7h-10.61c.472 1.867.707 4.2.707 7 0 2.683-.235 5.017-.707 7h-3.537c.472 1.867.708 4.2.708 7 0 2.683-.236 5.017-.708 7h17.683Z" class="color"/>


<style>
        .color { fill: #290022; }
        @media (prefers-color-scheme: dark) {
            .color { fill: #FFF; }
        }
    </style>

</svg>
